# xmcd
#
# Track frame offsets:
#	150
#	18191
#	58885
#	93855
#	105383
#	128838
#	150082
#	182178
#	200605
#	243793
#
# Disc length: 3307 seconds
#
# Revision: 1
# Processed by: cddbd v1.4PL0 Copyright (c) Steve Scherf et al.
# Submitted via: CDmax 1.9
#
DISCID=720ce90a
DTITLE=Stevie Ray Vaughan and Double Trouble - Live From Austin, Texas
DYEAR=1900
DGENRE=Blues
TTITLE0=Pride And Joy
TTITLE1=Texas Flood
TTITLE2=Voodoo Chile (Slight Return)
TTITLE3=The House Is Rockin'
TTITLE4=Tightrope
TTITLE5=Leave My Girl Alone
TTITLE6=Cold Shot
TTITLE7=Crossfire
TTITLE8=Riviera Paradise
TTITLE9=Tick Tock
EXTD=
EXTT0=
EXTT1=
EXTT2=
EXTT3=
EXTT4=
EXTT5=
EXTT6=
EXTT7=
EXTT8=
EXTT9=
PLAYORDER=
